<svg xmlns="http://www.w3.org/2000/svg" xmlns:xlink="http://www.w3.org/1999/xlink" width="600" height="400" viewBox="0 0 600 400"><rect width="100%" height="100%" fill="#DDDDDD"/><path d="M121.53 181.60L121.53 195.57Q123.00 194.19 124.76 193.34Q126.53 192.48 128.90 192.48L128.90 192.48Q130.96 192.48 132.55 193.18Q134.15 193.88 135.21 195.14Q136.28 196.40 136.83 198.15Q137.38 199.90 137.38 202.01L137.38 202.01L137.38 218.01L131.33 218.01L131.33 202.01Q131.33 199.71 130.28 198.44Q129.22 197.18 127.07 197.18L127.07 197.18Q125.50 197.18 124.13 197.89Q122.75 198.60 121.53 199.83L121.53 199.83L121.53 218.01L115.48 218.01L115.48 181.60L121.53 181.60ZM154.24 192.48L154.24 192.48Q157.03 192.48 159.32 193.39Q161.61 194.29 163.24 195.96Q164.87 197.62 165.75 200.02Q166.63 202.43 166.63 205.39L166.63 205.39Q166.63 208.38 165.75 210.78Q164.87 213.18 163.24 214.87Q161.61 216.56 159.32 217.47Q157.03 218.38 154.24 218.38L154.24 218.38Q151.42 218.38 149.12 217.47Q146.81 216.56 145.18 214.87Q143.56 213.18 142.66 210.78Q141.77 208.38 141.77 205.39L141.77 205.39Q141.77 202.43 142.66 200.02Q143.56 197.62 145.18 195.96Q146.81 194.29 149.12 193.39Q151.42 192.48 154.24 192.48ZM154.24 213.72L154.24 213.72Q157.37 213.72 158.88 211.61Q160.39 209.51 160.39 205.44L160.39 205.44Q160.39 201.37 158.88 199.24Q157.37 197.11 154.24 197.11L154.24 197.11Q151.05 197.11 149.52 199.25Q147.99 201.40 147.99 205.44L147.99 205.44Q147.99 209.48 149.52 211.60Q151.05 213.72 154.24 213.72ZM176.61 194.39L176.97 197.23Q178.15 194.98 179.77 193.69Q181.38 192.41 183.59 192.41L183.59 192.41Q185.33 192.41 186.38 193.16L186.38 193.16L185.99 197.70Q185.87 198.14 185.63 198.32Q185.40 198.51 185.01 198.51L185.01 198.51Q184.64 198.51 183.92 198.38Q183.20 198.26 182.51 198.26L182.51 198.26Q181.51 198.26 180.72 198.55Q179.94 198.85 179.31 199.40Q178.69 199.95 178.21 200.74Q177.73 201.52 177.32 202.52L177.32 202.52L177.32 218.01L171.26 218.01L171.26 192.87L174.82 192.87Q175.75 192.87 176.12 193.20Q176.48 193.53 176.61 194.39L176.61 194.39ZM189.74 192.87L195.81 192.87L195.81 218.01L189.74 218.01L189.74 192.87ZM196.65 185.55L196.65 185.55Q196.65 186.33 196.33 187.02Q196.01 187.70 195.48 188.22Q194.96 188.73 194.25 189.04Q193.54 189.34 192.73 189.34L192.73 189.34Q191.94 189.34 191.24 189.04Q190.55 188.73 190.03 188.22Q189.52 187.70 189.21 187.02Q188.90 186.33 188.90 185.55L188.90 185.55Q188.90 184.74 189.21 184.03Q189.52 183.32 190.03 182.80Q190.55 182.29 191.24 181.98Q191.94 181.67 192.73 181.67L192.73 181.67Q193.54 181.67 194.25 181.98Q194.96 182.29 195.48 182.80Q196.01 183.32 196.33 184.03Q196.65 184.74 196.65 185.55ZM218.70 195.59L217.32 197.77Q217.08 198.16 216.81 198.32Q216.54 198.48 216.12 198.48L216.12 198.48Q215.68 198.48 215.18 198.24Q214.68 197.99 214.02 197.68Q213.36 197.38 212.51 197.13Q211.67 196.89 210.51 196.89L210.51 196.89Q208.73 196.89 207.71 197.65Q206.69 198.41 206.69 199.63L206.69 199.63Q206.69 200.44 207.22 200.99Q207.75 201.54 208.61 201.96Q209.48 202.38 210.59 202.71Q211.69 203.04 212.83 203.43Q213.97 203.82 215.07 204.32Q216.17 204.83 217.04 205.60Q217.91 206.37 218.44 207.45Q218.97 208.53 218.97 210.05L218.97 210.05Q218.97 211.86 218.32 213.39Q217.67 214.92 216.39 216.04Q215.12 217.15 213.25 217.77Q211.37 218.40 208.92 218.40L208.92 218.40Q207.62 218.40 206.39 218.17Q205.15 217.93 204.01 217.52Q202.87 217.10 201.90 216.54Q200.93 215.97 200.20 215.31L200.20 215.31L201.60 213.01Q201.87 212.59 202.23 212.37Q202.60 212.15 203.16 212.15L203.16 212.15Q203.73 212.15 204.23 212.47Q204.73 212.79 205.39 213.16Q206.05 213.52 206.95 213.84Q207.84 214.16 209.22 214.16L209.22 214.16Q210.29 214.16 211.06 213.90Q211.84 213.65 212.34 213.23Q212.84 212.81 213.07 212.26Q213.31 211.71 213.31 211.12L213.31 211.12Q213.31 210.24 212.78 209.68Q212.25 209.11 211.38 208.70Q210.51 208.28 209.40 207.95Q208.28 207.62 207.12 207.23Q205.96 206.84 204.84 206.31Q203.73 205.78 202.86 204.97Q201.99 204.17 201.46 202.99Q200.93 201.81 200.93 200.15L200.93 200.15Q200.93 198.60 201.55 197.21Q202.16 195.81 203.35 194.77Q204.54 193.73 206.31 193.10Q208.09 192.48 210.42 192.48L210.42 192.48Q213.01 192.48 215.14 193.34Q217.28 194.19 218.70 195.59L218.70 195.59ZM228.30 202.55L239.72 202.55Q239.72 201.37 239.39 200.33Q239.06 199.29 238.39 198.51Q237.73 197.72 236.72 197.27Q235.70 196.82 234.35 196.82L234.35 196.82Q231.73 196.82 230.22 198.31Q228.72 199.80 228.30 202.55L228.30 202.55ZM243.74 206.20L228.18 206.20Q228.33 208.13 228.86 209.54Q229.40 210.95 230.29 211.87Q231.17 212.79 232.38 213.24Q233.59 213.70 235.06 213.70L235.06 213.70Q236.53 213.70 237.60 213.35Q238.66 213.01 239.46 212.59Q240.26 212.18 240.86 211.83Q241.46 211.49 242.02 211.49L242.02 211.49Q242.78 211.49 243.15 212.05L243.15 212.05L244.89 214.26Q243.88 215.44 242.63 216.23Q241.38 217.03 240.02 217.51Q238.66 217.98 237.26 218.18Q235.85 218.38 234.52 218.38L234.52 218.38Q231.90 218.38 229.65 217.51Q227.39 216.64 225.73 214.93Q224.06 213.23 223.11 210.72Q222.15 208.21 222.15 204.90L222.15 204.90Q222.15 202.33 222.98 200.06Q223.82 197.80 225.37 196.12Q226.93 194.44 229.17 193.46Q231.41 192.48 234.23 192.48L234.23 192.48Q236.61 192.48 238.62 193.24Q240.62 194.00 242.07 195.46Q243.52 196.91 244.34 199.03Q245.16 201.15 245.16 203.87L245.16 203.87Q245.16 205.24 244.86 205.72Q244.57 206.20 243.74 206.20L243.74 206.20ZM260.81 192.48L260.81 192.48Q263.61 192.48 265.90 193.39Q268.19 194.29 269.82 195.96Q271.45 197.62 272.33 200.02Q273.21 202.43 273.21 205.39L273.21 205.39Q273.21 208.38 272.33 210.78Q271.45 213.18 269.82 214.87Q268.19 216.56 265.90 217.47Q263.61 218.38 260.81 218.38L260.81 218.38Q257.99 218.38 255.69 217.47Q253.39 216.56 251.76 214.87Q250.13 213.18 249.24 210.78Q248.34 208.38 248.34 205.39L248.34 205.39Q248.34 202.43 249.24 200.02Q250.13 197.62 251.76 195.96Q253.39 194.29 255.69 193.39Q257.99 192.48 260.81 192.48ZM260.81 213.72L260.81 213.72Q263.95 213.72 265.45 211.61Q266.96 209.51 266.96 205.44L266.96 205.44Q266.96 201.37 265.45 199.24Q263.95 197.11 260.81 197.11L260.81 197.11Q257.63 197.11 256.10 199.25Q254.56 201.40 254.56 205.44L254.56 205.44Q254.56 209.48 256.10 211.60Q257.63 213.72 260.81 213.72ZM283.08 193.97L283.50 195.96Q284.26 195.20 285.10 194.55Q285.95 193.90 286.89 193.45Q287.84 192.99 288.91 192.74Q289.99 192.48 291.27 192.48L291.27 192.48Q293.32 192.48 294.92 193.18Q296.51 193.88 297.57 195.14Q298.64 196.40 299.19 198.15Q299.74 199.90 299.74 202.01L299.74 202.01L299.74 218.01L293.69 218.01L293.69 202.01Q293.69 199.71 292.64 198.44Q291.58 197.18 289.43 197.18L289.43 197.18Q287.86 197.18 286.49 197.89Q285.12 198.60 283.89 199.83L283.89 199.83L283.89 218.01L277.84 218.01L277.84 192.87L281.54 192.87Q282.72 192.87 283.08 193.97L283.08 193.97ZM348.67 192.87L353.28 192.87L345.29 218.01L340.44 218.01Q339.60 218.01 339.29 216.93L339.29 216.93L334.78 202.40Q334.56 201.67 334.37 200.94Q334.19 200.22 334.07 199.49L334.07 199.49Q333.92 200.22 333.74 200.97Q333.55 201.72 333.33 202.45L333.33 202.45L328.75 216.93Q328.46 218.01 327.45 218.01L327.45 218.01L322.80 218.01L314.83 192.87L319.66 192.87Q320.32 192.87 320.79 193.19Q321.25 193.51 321.40 194.00L321.40 194.00L325.00 207.42Q325.27 208.53 325.48 209.58Q325.69 210.63 325.84 211.69L325.84 211.69Q326.10 210.63 326.41 209.58Q326.72 208.53 327.06 207.42L327.06 207.42L331.23 193.95Q331.37 193.46 331.80 193.14Q332.23 192.82 332.84 192.82L332.84 192.82L335.51 192.82Q336.15 192.82 336.60 193.14Q337.06 193.46 337.20 193.95L337.20 193.95L341.25 207.42Q341.56 208.53 341.85 209.59Q342.13 210.66 342.40 211.71L342.40 211.71Q342.72 209.63 343.30 207.42L343.30 207.42L347.00 194.00Q347.17 193.51 347.62 193.19Q348.06 192.87 348.67 192.87L348.67 192.87ZM361.48 202.55L372.90 202.55Q372.90 201.37 372.57 200.33Q372.24 199.29 371.58 198.51Q370.92 197.72 369.90 197.27Q368.88 196.82 367.53 196.82L367.53 196.82Q364.91 196.82 363.41 198.31Q361.90 199.80 361.48 202.55L361.48 202.55ZM376.92 206.20L361.36 206.20Q361.51 208.13 362.05 209.54Q362.59 210.95 363.47 211.87Q364.35 212.79 365.56 213.24Q366.77 213.70 368.24 213.70L368.24 213.70Q369.71 213.70 370.78 213.35Q371.85 213.01 372.64 212.59Q373.44 212.18 374.04 211.83Q374.64 211.49 375.20 211.49L375.20 211.49Q375.96 211.49 376.33 212.05L376.33 212.05L378.07 214.26Q377.06 215.44 375.82 216.23Q374.57 217.03 373.21 217.51Q371.85 217.98 370.44 218.18Q369.03 218.38 367.71 218.38L367.71 218.38Q365.08 218.38 362.83 217.51Q360.58 216.64 358.91 214.93Q357.24 213.23 356.29 210.72Q355.33 208.21 355.33 204.90L355.33 204.90Q355.33 202.33 356.17 200.06Q357.00 197.80 358.55 196.12Q360.11 194.44 362.35 193.46Q364.59 192.48 367.41 192.48L367.41 192.48Q369.79 192.48 371.80 193.24Q373.81 194.00 375.25 195.46Q376.70 196.91 377.52 199.03Q378.34 201.15 378.34 203.87L378.34 203.87Q378.34 205.24 378.04 205.72Q377.75 206.20 376.92 206.20L376.92 206.20ZM388.92 200.22L388.92 211.49Q389.95 212.74 391.16 213.25Q392.38 213.77 393.72 213.77L393.72 213.77Q395.12 213.77 396.24 213.27Q397.35 212.76 398.13 211.70Q398.92 210.63 399.34 208.98Q399.75 207.33 399.75 205.02L399.75 205.02Q399.75 200.88 398.38 199.03Q397.01 197.18 394.44 197.18L394.44 197.18Q392.70 197.18 391.40 197.98Q390.10 198.78 388.92 200.22L388.92 200.22ZM388.92 181.60L388.92 195.96Q390.44 194.37 392.29 193.42Q394.14 192.48 396.52 192.48L396.52 192.48Q398.70 192.48 400.45 193.34Q402.20 194.19 403.44 195.80Q404.68 197.40 405.34 199.68Q406.00 201.96 406.00 204.80L406.00 204.80Q406.00 207.86 405.24 210.36Q404.48 212.86 403.07 214.64Q401.66 216.42 399.68 217.40Q397.69 218.38 395.27 218.38L395.27 218.38Q394.09 218.38 393.14 218.14Q392.18 217.91 391.37 217.49Q390.56 217.08 389.89 216.48Q389.22 215.88 388.60 215.14L388.60 215.14L388.33 216.83Q388.19 217.47 387.83 217.74Q387.48 218.01 386.86 218.01L386.86 218.01L382.87 218.01L382.87 181.60L388.92 181.60ZM427.39 195.59L426.02 197.77Q425.77 198.16 425.50 198.32Q425.23 198.48 424.82 198.48L424.82 198.48Q424.37 198.48 423.87 198.24Q423.37 197.99 422.71 197.68Q422.05 197.38 421.20 197.13Q420.36 196.89 419.20 196.89L419.20 196.89Q417.42 196.89 416.40 197.65Q415.38 198.41 415.38 199.63L415.38 199.63Q415.38 200.44 415.91 200.99Q416.44 201.54 417.31 201.96Q418.18 202.38 419.28 202.71Q420.38 203.04 421.52 203.43Q422.66 203.82 423.76 204.32Q424.86 204.83 425.73 205.60Q426.60 206.37 427.13 207.45Q427.66 208.53 427.66 210.05L427.66 210.05Q427.66 211.86 427.01 213.39Q426.36 214.92 425.08 216.04Q423.81 217.15 421.94 217.77Q420.06 218.40 417.61 218.40L417.61 218.40Q416.31 218.40 415.08 218.17Q413.84 217.93 412.70 217.52Q411.56 217.10 410.59 216.54Q409.63 215.97 408.89 215.31L408.89 215.31L410.29 213.01Q410.56 212.59 410.92 212.37Q411.29 212.15 411.85 212.15L411.85 212.15Q412.42 212.15 412.92 212.47Q413.42 212.79 414.08 213.16Q414.75 213.52 415.64 213.84Q416.53 214.16 417.91 214.16L417.91 214.16Q418.98 214.16 419.76 213.90Q420.53 213.65 421.03 213.23Q421.53 212.81 421.76 212.26Q422.00 211.71 422.00 211.12L422.00 211.12Q422.00 210.24 421.47 209.68Q420.94 209.11 420.07 208.70Q419.20 208.28 418.09 207.95Q416.98 207.62 415.81 207.23Q414.65 206.84 413.53 206.31Q412.42 205.78 411.55 204.97Q410.68 204.17 410.15 202.99Q409.63 201.81 409.63 200.15L409.63 200.15Q409.63 198.60 410.24 197.21Q410.85 195.81 412.04 194.77Q413.23 193.73 415.00 193.10Q416.78 192.48 419.11 192.48L419.11 192.48Q421.70 192.48 423.84 193.34Q425.97 194.19 427.39 195.59L427.39 195.59ZM432.41 192.87L438.49 192.87L438.49 218.01L432.41 218.01L432.41 192.87ZM439.32 185.55L439.32 185.55Q439.32 186.33 439.00 187.02Q438.68 187.70 438.16 188.22Q437.63 188.73 436.92 189.04Q436.21 189.34 435.40 189.34L435.40 189.34Q434.62 189.34 433.92 189.04Q433.22 188.73 432.70 188.22Q432.19 187.70 431.88 187.02Q431.58 186.33 431.58 185.55L431.58 185.55Q431.58 184.74 431.88 184.03Q432.19 183.32 432.70 182.80Q433.22 182.29 433.92 181.98Q434.62 181.67 435.40 181.67L435.40 181.67Q436.21 181.67 436.92 181.98Q437.63 182.29 438.16 182.80Q438.68 183.32 439.00 184.03Q439.32 184.74 439.32 185.55ZM453.04 218.40L453.04 218.40Q449.76 218.40 448.00 216.55Q446.25 214.70 446.25 211.44L446.25 211.44L446.25 197.40L443.68 197.40Q443.19 197.40 442.85 197.08Q442.50 196.77 442.50 196.13L442.50 196.13L442.50 193.73L446.55 193.07L447.82 186.21Q447.94 185.72 448.29 185.45Q448.63 185.18 449.17 185.18L449.17 185.18L452.30 185.18L452.30 193.09L459.02 193.09L459.02 197.40L452.30 197.40L452.30 211.03Q452.30 212.20 452.88 212.86Q453.46 213.52 454.46 213.52L454.46 213.52Q455.02 213.52 455.40 213.39Q455.78 213.25 456.06 213.11Q456.35 212.96 456.57 212.83Q456.79 212.69 457.01 212.69L457.01 212.69Q457.28 212.69 457.45 212.83Q457.62 212.96 457.82 213.23L457.82 213.23L459.63 216.17Q458.31 217.27 456.59 217.84Q454.88 218.40 453.04 218.40ZM467.67 202.55L479.08 202.55Q479.08 201.37 478.75 200.33Q478.42 199.29 477.76 198.51Q477.10 197.72 476.08 197.27Q475.06 196.82 473.72 196.82L473.72 196.82Q471.10 196.82 469.59 198.31Q468.08 199.80 467.67 202.55L467.67 202.55ZM483.10 206.20L467.54 206.20Q467.69 208.13 468.23 209.54Q468.77 210.95 469.65 211.87Q470.53 212.79 471.75 213.24Q472.96 213.70 474.43 213.70L474.43 213.70Q475.90 213.70 476.96 213.35Q478.03 213.01 478.83 212.59Q479.62 212.18 480.22 211.83Q480.82 211.49 481.39 211.49L481.39 211.49Q482.15 211.49 482.51 212.05L482.51 212.05L484.25 214.26Q483.25 215.44 482.00 216.23Q480.75 217.03 479.39 217.51Q478.03 217.98 476.62 218.18Q475.21 218.38 473.89 218.38L473.89 218.38Q471.27 218.38 469.01 217.51Q466.76 216.64 465.09 214.93Q463.43 213.23 462.47 210.72Q461.52 208.21 461.52 204.90L461.52 204.90Q461.52 202.33 462.35 200.06Q463.18 197.80 464.74 196.12Q466.29 194.44 468.54 193.46Q470.78 192.48 473.59 192.48L473.59 192.48Q475.97 192.48 477.98 193.24Q479.99 194.00 481.43 195.46Q482.88 196.91 483.70 199.03Q484.52 201.15 484.52 203.87L484.52 203.87Q484.52 205.24 484.23 205.72Q483.93 206.20 483.10 206.20L483.10 206.20Z" fill="#999999"/></svg>