<svg xmlns="http://www.w3.org/2000/svg" xmlns:xlink="http://www.w3.org/1999/xlink" width="600" height="400" viewBox="0 0 600 400"><rect width="100%" height="100%" fill="#DDDDDD"/><path d="M152.57 181.16L138.60 204.64L138.60 219.48L131.50 219.48L131.50 204.64L117.53 181.16L123.81 181.16Q124.74 181.16 125.29 181.61Q125.83 182.06 126.20 182.75L126.20 182.75L133.20 195.55Q133.81 196.69 134.27 197.69Q134.73 198.70 135.10 199.71L135.10 199.71Q135.45 198.70 135.90 197.69Q136.35 196.69 136.93 195.55L136.93 195.55L143.90 182.75Q144.19 182.17 144.78 181.66Q145.36 181.16 146.26 181.16L146.26 181.16L152.57 181.16ZM160.62 202.76L172.97 202.76Q172.97 201.48 172.61 200.36Q172.26 199.23 171.54 198.38Q170.83 197.54 169.73 197.05Q168.63 196.56 167.17 196.56L167.17 196.56Q164.33 196.56 162.70 198.17Q161.07 199.79 160.62 202.76L160.62 202.76ZM177.32 206.70L160.49 206.70Q160.65 208.80 161.23 210.32Q161.82 211.85 162.77 212.84Q163.72 213.83 165.04 214.32Q166.35 214.81 167.94 214.81L167.94 214.81Q169.53 214.81 170.68 214.44Q171.83 214.07 172.69 213.62Q173.56 213.17 174.20 212.80Q174.85 212.43 175.46 212.43L175.46 212.43Q176.28 212.43 176.68 213.04L176.68 213.04L178.56 215.42Q177.48 216.69 176.13 217.56Q174.77 218.42 173.30 218.93Q171.83 219.45 170.31 219.66Q168.79 219.88 167.35 219.88L167.35 219.88Q164.52 219.88 162.08 218.93Q159.64 217.99 157.84 216.15Q156.04 214.31 155.01 211.59Q153.97 208.88 153.97 205.30L153.97 205.30Q153.97 202.52 154.87 200.07Q155.77 197.61 157.46 195.80Q159.14 193.98 161.56 192.92Q163.99 191.86 167.04 191.86L167.04 191.86Q169.61 191.86 171.78 192.69Q173.95 193.51 175.52 195.08Q177.08 196.66 177.97 198.95Q178.86 201.25 178.86 204.19L178.86 204.19Q178.86 205.67 178.54 206.19Q178.22 206.70 177.32 206.70L177.32 206.70ZM198.12 212.45L198.12 207.87Q195.29 208.00 193.35 208.36Q191.42 208.72 190.25 209.27Q189.08 209.83 188.58 210.57Q188.08 211.32 188.08 212.19L188.08 212.19Q188.08 213.91 189.10 214.65Q190.12 215.40 191.76 215.40L191.76 215.40Q193.77 215.40 195.25 214.67Q196.72 213.94 198.12 212.45L198.12 212.45ZM184.29 198.17L183.12 196.08Q187.81 191.78 194.41 191.78L194.41 191.78Q196.80 191.78 198.68 192.57Q200.56 193.35 201.86 194.74Q203.16 196.13 203.83 198.07Q204.51 200 204.51 202.31L204.51 202.31L204.51 219.48L201.54 219.48Q200.61 219.48 200.11 219.20Q199.60 218.92 199.31 218.07L199.31 218.07L198.73 216.11Q197.70 217.04 196.72 217.74Q195.74 218.44 194.68 218.92Q193.62 219.40 192.41 219.65Q191.20 219.90 189.75 219.90L189.75 219.90Q188.02 219.90 186.57 219.44Q185.11 218.97 184.05 218.05Q182.99 217.12 182.41 215.74Q181.82 214.36 181.82 212.53L181.82 212.53Q181.82 211.50 182.17 210.48Q182.51 209.46 183.29 208.53Q184.08 207.61 185.32 206.78Q186.57 205.96 188.38 205.35Q190.20 204.74 192.61 204.36Q195.02 203.97 198.12 203.90L198.12 203.90L198.12 202.31Q198.12 199.58 196.95 198.26Q195.79 196.95 193.59 196.95L193.59 196.95Q192.00 196.95 190.95 197.32Q189.91 197.69 189.11 198.16Q188.32 198.62 187.67 198.99Q187.02 199.36 186.22 199.36L186.22 199.36Q185.53 199.36 185.06 199.01Q184.58 198.65 184.29 198.17L184.29 198.17ZM216.43 193.93L216.83 197.01Q218.10 194.57 219.85 193.18Q221.60 191.78 223.98 191.78L223.98 191.78Q225.87 191.78 227.01 192.61L227.01 192.61L226.58 197.51Q226.45 197.99 226.20 198.18Q225.95 198.38 225.52 198.38L225.52 198.38Q225.12 198.38 224.34 198.25Q223.56 198.12 222.82 198.12L222.82 198.12Q221.73 198.12 220.88 198.44Q220.04 198.75 219.36 199.35Q218.68 199.95 218.17 200.79Q217.65 201.64 217.20 202.73L217.20 202.73L217.20 219.48L210.66 219.48L210.66 192.29L214.50 192.29Q215.50 192.29 215.90 192.65Q216.30 193.00 216.43 193.93L216.43 193.93ZM236.97 200.24L236.97 212.43Q238.08 213.78 239.39 214.34Q240.71 214.89 242.16 214.89L242.16 214.89Q243.67 214.89 244.88 214.35Q246.09 213.81 246.93 212.65Q247.78 211.50 248.23 209.71Q248.68 207.92 248.68 205.43L248.68 205.43Q248.68 200.95 247.20 198.95Q245.71 196.95 242.93 196.95L242.93 196.95Q241.05 196.95 239.65 197.81Q238.24 198.67 236.97 200.24L236.97 200.24ZM236.97 180.10L236.97 195.63Q238.61 193.91 240.61 192.88Q242.61 191.86 245.18 191.86L245.18 191.86Q247.54 191.86 249.44 192.79Q251.33 193.72 252.67 195.46Q254.01 197.19 254.72 199.66Q255.44 202.12 255.44 205.19L255.44 205.19Q255.44 208.51 254.62 211.21Q253.80 213.91 252.27 215.83Q250.75 217.75 248.60 218.81Q246.46 219.88 243.83 219.88L243.83 219.88Q242.56 219.88 241.53 219.62Q240.49 219.37 239.62 218.92Q238.75 218.47 238.02 217.82Q237.29 217.17 236.63 216.38L236.63 216.38L236.33 218.21Q236.17 218.89 235.79 219.19Q235.41 219.48 234.74 219.48L234.74 219.48L230.42 219.48L230.42 180.10L236.97 180.10ZM265.67 202.76L278.02 202.76Q278.02 201.48 277.66 200.36Q277.30 199.23 276.59 198.38Q275.87 197.54 274.77 197.05Q273.67 196.56 272.21 196.56L272.21 196.56Q269.38 196.56 267.75 198.17Q266.12 199.79 265.67 202.76L265.67 202.76ZM282.36 206.70L265.54 206.70Q265.70 208.80 266.28 210.32Q266.86 211.85 267.82 212.84Q268.77 213.83 270.08 214.32Q271.39 214.81 272.98 214.81L272.98 214.81Q274.57 214.81 275.73 214.44Q276.88 214.07 277.74 213.62Q278.60 213.17 279.25 212.80Q279.90 212.43 280.51 212.43L280.51 212.43Q281.33 212.43 281.73 213.04L281.73 213.04L283.61 215.42Q282.52 216.69 281.17 217.56Q279.82 218.42 278.35 218.93Q276.88 219.45 275.36 219.66Q273.83 219.88 272.40 219.88L272.40 219.88Q269.56 219.88 267.13 218.93Q264.69 217.99 262.89 216.15Q261.08 214.31 260.05 211.59Q259.02 208.88 259.02 205.30L259.02 205.30Q259.02 202.52 259.92 200.07Q260.82 197.61 262.50 195.80Q264.19 193.98 266.61 192.92Q269.03 191.86 272.08 191.86L272.08 191.86Q274.65 191.86 276.83 192.69Q279.00 193.51 280.56 195.08Q282.13 196.66 283.01 198.95Q283.90 201.25 283.90 204.19L283.90 204.19Q283.90 205.67 283.58 206.19Q283.27 206.70 282.36 206.70L282.36 206.70ZM335.52 192.29L340.51 192.29L331.87 219.48L326.62 219.48Q325.72 219.48 325.37 218.31L325.37 218.31L320.50 202.60Q320.26 201.80 320.06 201.02Q319.86 200.24 319.73 199.44L319.73 199.44Q319.57 200.24 319.37 201.05Q319.17 201.85 318.93 202.65L318.93 202.65L313.98 218.31Q313.66 219.48 312.57 219.48L312.57 219.48L307.54 219.48L298.93 192.29L304.15 192.29Q304.86 192.29 305.37 192.63Q305.87 192.98 306.03 193.51L306.03 193.51L309.92 208.03Q310.22 209.22 310.44 210.36Q310.67 211.50 310.83 212.64L310.83 212.64Q311.12 211.50 311.45 210.36Q311.78 209.22 312.15 208.03L312.15 208.03L316.66 193.45Q316.81 192.92 317.28 192.58Q317.74 192.24 318.40 192.24L318.40 192.24L321.29 192.24Q321.98 192.24 322.47 192.58Q322.96 192.92 323.12 193.45L323.12 193.45L327.49 208.03Q327.84 209.22 328.14 210.37Q328.45 211.53 328.74 212.67L328.74 212.67Q329.08 210.41 329.72 208.03L329.72 208.03L333.72 193.51Q333.91 192.98 334.38 192.63Q334.86 192.29 335.52 192.29L335.52 192.29ZM349.38 202.76L361.73 202.76Q361.73 201.48 361.37 200.36Q361.02 199.23 360.30 198.38Q359.59 197.54 358.49 197.05Q357.39 196.56 355.93 196.56L355.93 196.56Q353.09 196.56 351.46 198.17Q349.83 199.79 349.38 202.76L349.38 202.76ZM366.08 206.70L349.25 206.70Q349.41 208.80 349.99 210.32Q350.58 211.85 351.53 212.84Q352.48 213.83 353.80 214.32Q355.11 214.81 356.70 214.81L356.70 214.81Q358.29 214.81 359.44 214.44Q360.59 214.07 361.45 213.62Q362.31 213.17 362.96 212.80Q363.61 212.43 364.22 212.43L364.22 212.43Q365.04 212.43 365.44 213.04L365.44 213.04L367.32 215.42Q366.24 216.69 364.89 217.56Q363.53 218.42 362.06 218.93Q360.59 219.45 359.07 219.66Q357.54 219.88 356.11 219.88L356.11 219.88Q353.28 219.88 350.84 218.93Q348.40 217.99 346.60 216.15Q344.80 214.31 343.76 211.59Q342.73 208.88 342.73 205.30L342.73 205.30Q342.73 202.52 343.63 200.07Q344.53 197.61 346.22 195.80Q347.90 193.98 350.32 192.92Q352.75 191.86 355.80 191.86L355.80 191.86Q358.37 191.86 360.54 192.69Q362.71 193.51 364.28 195.08Q365.84 196.66 366.73 198.95Q367.61 201.25 367.61 204.19L367.61 204.19Q367.61 205.67 367.30 206.19Q366.98 206.70 366.08 206.70L366.08 206.70ZM379.06 200.24L379.06 212.43Q380.18 213.78 381.49 214.34Q382.80 214.89 384.26 214.89L384.26 214.89Q385.77 214.89 386.97 214.35Q388.18 213.81 389.03 212.65Q389.87 211.50 390.33 209.71Q390.78 207.92 390.78 205.43L390.78 205.43Q390.78 200.95 389.29 198.95Q387.81 196.95 385.03 196.95L385.03 196.95Q383.14 196.95 381.74 197.81Q380.33 198.67 379.06 200.24L379.06 200.24ZM379.06 180.10L379.06 195.63Q380.71 193.91 382.71 192.88Q384.71 191.86 387.28 191.86L387.28 191.86Q389.64 191.86 391.53 192.79Q393.43 193.72 394.76 195.46Q396.10 197.19 396.82 199.66Q397.53 202.12 397.53 205.19L397.53 205.19Q397.53 208.51 396.71 211.21Q395.89 213.91 394.37 215.83Q392.84 217.75 390.70 218.81Q388.55 219.88 385.93 219.88L385.93 219.88Q384.65 219.88 383.62 219.62Q382.59 219.37 381.71 218.92Q380.84 218.47 380.11 217.82Q379.38 217.17 378.72 216.38L378.72 216.38L378.43 218.21Q378.27 218.89 377.88 219.19Q377.50 219.48 376.84 219.48L376.84 219.48L372.52 219.48L372.52 180.10L379.06 180.10ZM420.67 195.23L419.18 197.59Q418.92 198.01 418.63 198.18Q418.34 198.36 417.89 198.36L417.89 198.36Q417.41 198.36 416.87 198.09Q416.32 197.83 415.61 197.50Q414.89 197.16 413.98 196.90Q413.06 196.63 411.82 196.63L411.82 196.63Q409.88 196.63 408.78 197.46Q407.68 198.28 407.68 199.60L407.68 199.60Q407.68 200.48 408.25 201.07Q408.82 201.67 409.76 202.12Q410.70 202.57 411.90 202.93Q413.09 203.29 414.32 203.71Q415.55 204.13 416.75 204.68Q417.94 205.22 418.88 206.06Q419.82 206.89 420.39 208.06Q420.96 209.22 420.96 210.86L420.96 210.86Q420.96 212.83 420.26 214.48Q419.55 216.14 418.18 217.34Q416.80 218.55 414.77 219.23Q412.74 219.90 410.09 219.90L410.09 219.90Q408.69 219.90 407.35 219.65Q406.01 219.40 404.78 218.95Q403.55 218.50 402.50 217.89Q401.46 217.28 400.66 216.56L400.66 216.56L402.17 214.07Q402.46 213.62 402.86 213.38Q403.26 213.14 403.87 213.14L403.87 213.14Q404.48 213.14 405.02 213.49Q405.56 213.83 406.28 214.23Q406.99 214.63 407.96 214.97Q408.93 215.32 410.41 215.32L410.41 215.32Q411.58 215.32 412.41 215.04Q413.25 214.76 413.79 214.31Q414.33 213.86 414.59 213.26Q414.84 212.67 414.84 212.03L414.84 212.03Q414.84 211.08 414.27 210.47Q413.70 209.86 412.76 209.41Q411.82 208.96 410.61 208.60Q409.41 208.24 408.15 207.82Q406.89 207.39 405.68 206.82Q404.48 206.25 403.54 205.38Q402.59 204.50 402.03 203.23Q401.46 201.96 401.46 200.16L401.46 200.16Q401.46 198.49 402.12 196.98Q402.78 195.47 404.07 194.34Q405.35 193.22 407.27 192.54Q409.19 191.86 411.71 191.86L411.71 191.86Q414.52 191.86 416.83 192.79Q419.13 193.72 420.67 195.23L420.67 195.23ZM426.10 192.29L432.67 192.29L432.67 219.48L426.10 219.48L426.10 192.29ZM433.57 184.37L433.57 184.37Q433.57 185.21 433.23 185.95Q432.88 186.70 432.31 187.25Q431.74 187.81 430.98 188.14Q430.21 188.47 429.33 188.47L429.33 188.47Q428.49 188.47 427.73 188.14Q426.97 187.81 426.42 187.25Q425.86 186.70 425.53 185.95Q425.20 185.21 425.20 184.37L425.20 184.37Q425.20 183.49 425.53 182.72Q425.86 181.95 426.42 181.40Q426.97 180.84 427.73 180.51Q428.49 180.18 429.33 180.18L429.33 180.18Q430.21 180.18 430.98 180.51Q431.74 180.84 432.31 181.40Q432.88 181.95 433.23 182.72Q433.57 183.49 433.57 184.37ZM448.41 219.90L448.41 219.90Q444.86 219.90 442.97 217.90Q441.07 215.90 441.07 212.38L441.07 212.38L441.07 197.19L438.29 197.19Q437.76 197.19 437.39 196.85Q437.02 196.50 437.02 195.81L437.02 195.81L437.02 193.22L441.39 192.50L442.77 185.08Q442.90 184.55 443.27 184.26Q443.64 183.97 444.23 183.97L444.23 183.97L447.62 183.97L447.62 192.53L454.88 192.53L454.88 197.19L447.62 197.19L447.62 211.92Q447.62 213.20 448.24 213.91Q448.86 214.63 449.95 214.63L449.95 214.63Q450.56 214.63 450.97 214.48Q451.38 214.34 451.69 214.18Q451.99 214.02 452.23 213.87Q452.47 213.73 452.71 213.73L452.71 213.73Q453.00 213.73 453.18 213.87Q453.37 214.02 453.58 214.31L453.58 214.31L455.54 217.49Q454.11 218.68 452.26 219.29Q450.40 219.90 448.41 219.90ZM464.23 202.76L476.58 202.76Q476.58 201.48 476.23 200.36Q475.87 199.23 475.15 198.38Q474.44 197.54 473.34 197.05Q472.24 196.56 470.78 196.56L470.78 196.56Q467.94 196.56 466.31 198.17Q464.68 199.79 464.23 202.76L464.23 202.76ZM480.93 206.70L464.10 206.70Q464.26 208.80 464.84 210.32Q465.43 211.85 466.38 212.84Q467.33 213.83 468.65 214.32Q469.96 214.81 471.55 214.81L471.55 214.81Q473.14 214.81 474.29 214.44Q475.44 214.07 476.30 213.62Q477.17 213.17 477.82 212.80Q478.46 212.43 479.07 212.43L479.07 212.43Q479.90 212.43 480.29 213.04L480.29 213.04L482.17 215.42Q481.09 216.69 479.74 217.56Q478.38 218.42 476.91 218.93Q475.44 219.45 473.92 219.66Q472.40 219.88 470.96 219.88L470.96 219.88Q468.13 219.88 465.69 218.93Q463.25 217.99 461.45 216.15Q459.65 214.31 458.62 211.59Q457.58 208.88 457.58 205.30L457.58 205.30Q457.58 202.52 458.48 200.07Q459.38 197.61 461.07 195.80Q462.75 193.98 465.17 192.92Q467.60 191.86 470.65 191.86L470.65 191.86Q473.22 191.86 475.39 192.69Q477.56 193.51 479.13 195.08Q480.69 196.66 481.58 198.95Q482.47 201.25 482.47 204.19L482.47 204.19Q482.47 205.67 482.15 206.19Q481.83 206.70 480.93 206.70L480.93 206.70Z" fill="#999999"/></svg>